<svg xmlns="http://www.w3.org/2000/svg" width="512" height="512" viewBox="0 0 512 512" version="1.1">
	<path d="M 0 256.002 L 0 512.004 256.250 511.752 L 512.500 511.500 512.752 255.750 L 513.004 0 256.502 0 L 0 0 0 256.002 M 0.492 256.500 C 0.492 397.300, 0.608 454.751, 0.750 384.170 C 0.892 313.588, 0.892 198.388, 0.750 128.170 C 0.608 57.951, 0.492 115.700, 0.492 256.500 M 238.870 90.024 C 226.755 91.904, 216.077 96.627, 206.373 104.395 C 198.864 110.407, 196.571 114.174, 196.571 120.502 C 196.571 129.965, 203.507 137, 212.836 137 C 218.340 137, 220.747 135.930, 226.729 130.824 C 233.184 125.314, 239.566 122.989, 248.212 122.995 C 261.547 123.005, 272.248 129.664, 278.130 141.612 C 280.856 147.149, 281.327 149.191, 281.293 155.310 C 281.216 168.833, 274.229 180.257, 262.500 186.036 L 257.500 188.500 184 189 C 112.121 189.489, 110.423 189.545, 107.003 191.554 C 105.080 192.684, 102.453 195.159, 101.166 197.054 C 99.204 199.942, 98.885 201.478, 99.197 206.543 C 99.633 213.632, 102.176 217.906, 107.445 220.407 C 110.607 221.907, 117.932 222.034, 186.715 221.780 L 262.500 221.500 269 219.182 C 289.653 211.818, 304.938 196.163, 311.650 175.500 C 314.960 165.307, 315.382 149.170, 312.603 139 C 304.980 111.100, 281.181 91.752, 251.933 89.678 C 247.845 89.388, 241.966 89.544, 238.870 90.024 M 354.362 190.494 C 342.387 193.098, 329.328 201.577, 326.363 208.673 C 319.756 224.487, 337.296 238.537, 351.138 228.518 C 357.483 223.926, 360.507 222.648, 365.071 222.632 C 374.317 222.599, 381 229.558, 381 239.220 C 381 245.680, 378.425 250.257, 372.997 253.446 C 369.534 255.480, 368.315 255.505, 247.422 256 L 125.344 256.500 121.761 259.233 C 112.111 266.594, 113.549 281.699, 124.401 286.952 L 128.726 289.046 252.113 288.773 L 375.500 288.500 381.500 286.108 C 394.734 280.832, 403.537 272.811, 409.529 260.570 C 423.601 231.826, 406.576 197.105, 375.144 190.443 C 367.075 188.733, 362.408 188.744, 354.362 190.494 M 111.275 322.957 C 103.323 324.880, 99.009 330.525, 99.004 339.018 C 99.001 343.277, 99.577 345.385, 101.529 348.257 C 106.848 356.085, 95.946 355.440, 232.544 356 C 348.013 356.473, 354.737 356.597, 357.342 358.304 C 358.857 359.297, 360.973 361.547, 362.045 363.304 C 366.576 370.733, 365.466 378.540, 359.052 384.334 C 352.182 390.540, 344.733 390.470, 336.281 384.119 C 327.425 377.465, 319.170 377.749, 312.681 384.932 C 305.920 392.415, 307.051 402.354, 315.511 409.801 C 330.727 423.194, 352.676 425.786, 371.237 416.380 C 378.287 412.807, 388.104 403.158, 391.863 396.106 C 397.652 385.244, 399.412 371.841, 396.511 360.703 C 391.976 343.291, 380.113 330.531, 363.072 324.735 L 356.500 322.500 235.500 322.339 C 168.950 322.250, 113.049 322.528, 111.275 322.957" stroke="none" fill="black" fill-rule="evenodd"/>
</svg>